<svg version="1.1" xmlns="http://www.w3.org/2000/svg" xmlns:xlink="http://www.w3.org/1999/xlink" width="930.919921875" height="709"><defs/><g><text fill="#eeeeee" stroke="none" font-family="Arial" font-size="24px" font-style="normal" font-weight="normal" text-decoration="none" x="0" y="0"></text><text fill="#eeeeee" stroke="none" font-family="Arial" font-size="24px" font-style="normal" font-weight="normal" text-decoration="none" x="0" y="30"></text><text fill="#eeeeee" stroke="none" font-family="Arial" font-size="24px" font-style="normal" font-weight="normal" text-decoration="none" x="0" y="60"></text><text fill="#eeeeee" stroke="none" font-family="Arial" font-size="24px" font-style="normal" font-weight="normal" text-decoration="none" x="0" y="90"></text><text fill="#eeeeee" stroke="none" font-family="Arial" font-size="24px" font-style="normal" font-weight="normal" text-decoration="none" x="0" y="120"></text><text fill="#eeeeee" stroke="none" font-family="Arial" font-size="24px" font-style="normal" font-weight="normal" text-decoration="none" x="0" y="150"></text><text fill="#eeeeee" stroke="none" font-family="Arial" font-size="24px" font-style="normal" font-weight="normal" text-decoration="none" x="0" y="180"></text><text fill="#eeeeee" stroke="none" font-family="Arial" font-size="24px" font-style="normal" font-weight="normal" text-decoration="none" x="0" y="210"></text><text fill="#eeeeee" stroke="none" font-family="Arial" font-size="24px" font-style="normal" font-weight="normal" text-decoration="none" x="0" y="240"></text><text fill="#eeeeee" stroke="none" font-family="Arial" font-size="24px" font-style="normal" font-weight="normal" text-decoration="none" x="0" y="270"></text><text fill="#eeeeee" stroke="none" font-family="Arial" font-size="24px" font-style="normal" font-weight="normal" text-decoration="none" x="0" y="300"></text><text fill="#eeeeee" stroke="none" font-family="Arial" font-size="24px" font-style="normal" font-weight="normal" text-decoration="none" x="0" y="330"></text><text fill="#eeeeee" stroke="none" font-family="Arial" font-size="24px" font-style="normal" font-weight="normal" text-decoration="none" x="0" y="360"></text><text fill="#eeeeee" stroke="none" font-family="Arial" font-size="24px" font-style="normal" font-weight="normal" text-decoration="none" x="0" y="390"></text><text fill="#eeeeee" stroke="none" font-family="Arial" font-size="24px" font-style="normal" font-weight="normal" text-decoration="none" x="0" y="420"></text><text fill="#eeeeee" stroke="none" font-family="Arial" font-size="24px" font-style="normal" font-weight="normal" text-decoration="none" x="0" y="450"></text><text fill="#eeeeee" stroke="none" font-family="Arial" font-size="24px" font-style="normal" font-weight="normal" text-decoration="none" x="0" y="480"></text><text fill="#eeeeee" stroke="none" font-family="Arial" font-size="24px" font-style="normal" font-weight="normal" text-decoration="none" x="0" y="510"></text><text fill="#eeeeee" stroke="none" font-family="Arial" font-size="24px" font-style="normal" font-weight="normal" text-decoration="none" x="0" y="540"></text><text fill="#eeeeee" stroke="none" font-family="Arial" font-size="24px" font-style="normal" font-weight="normal" text-decoration="none" x="0" y="570"></text><text fill="#eeeeee" stroke="none" font-family="Arial" font-size="24px" font-style="normal" font-weight="normal" text-decoration="none" x="0" y="600"></text><text fill="#eeeeee" stroke="none" font-family="Arial" font-size="24px" font-style="normal" font-weight="normal" text-decoration="none" x="0" y="630"></text><text fill="#eeeeee" stroke="none" font-family="Arial" font-size="24px" font-style="normal" font-weight="normal" text-decoration="none" x="0" y="660"></text><text fill="#eeeeee" stroke="none" font-family="Arial" font-size="24px" font-style="normal" font-weight="normal" text-decoration="none" x="0" y="690"></text><text fill="#eeeeee" stroke="none" font-family="Arial" font-size="24px" font-style="normal" font-weight="normal" text-decoration="none" x="200" y="0"></text><text fill="#eeeeee" stroke="none" font-family="Arial" font-size="24px" font-style="normal" font-weight="normal" text-decoration="none" x="200" y="30"></text><text fill="#eeeeee" stroke="none" font-family="Arial" font-size="24px" font-style="normal" font-weight="normal" text-decoration="none" x="200" y="60"></text><text fill="#eeeeee" stroke="none" font-family="Arial" font-size="24px" font-style="normal" font-weight="normal" text-decoration="none" x="200" y="90"></text><text fill="#eeeeee" stroke="none" font-family="Arial" font-size="24px" font-style="normal" font-weight="normal" text-decoration="none" x="200" y="120"></text><text fill="#eeeeee" stroke="none" font-family="Arial" font-size="24px" font-style="normal" font-weight="normal" text-decoration="none" x="200" y="150"></text><text fill="#eeeeee" stroke="none" font-family="Arial" font-size="24px" font-style="normal" font-weight="normal" text-decoration="none" x="200" y="180"></text><text fill="#eeeeee" stroke="none" font-family="Arial" font-size="24px" font-style="normal" font-weight="normal" text-decoration="none" x="200" y="210"></text><text fill="#eeeeee" stroke="none" font-family="Arial" font-size="24px" font-style="normal" font-weight="normal" text-decoration="none" x="200" y="240"></text><text fill="#eeeeee" stroke="none" font-family="Arial" font-size="24px" font-style="normal" font-weight="normal" text-decoration="none" x="200" y="270"></text><text fill="#eeeeee" stroke="none" font-family="Arial" font-size="24px" font-style="normal" font-weight="normal" text-decoration="none" x="200" y="300"></text><text fill="#eeeeee" stroke="none" font-family="Arial" font-size="24px" font-style="normal" font-weight="normal" text-decoration="none" x="200" y="330"></text><text fill="#eeeeee" stroke="none" font-family="Arial" font-size="24px" font-style="normal" font-weight="normal" text-decoration="none" x="200" y="360"></text><text fill="#eeeeee" stroke="none" font-family="Arial" font-size="24px" font-style="normal" font-weight="normal" text-decoration="none" x="200" y="390"></text><text fill="#eeeeee" stroke="none" font-family="Arial" font-size="24px" font-style="normal" font-weight="normal" text-decoration="none" x="200" y="420"></text><text fill="#eeeeee" stroke="none" font-family="Arial" font-size="24px" font-style="normal" font-weight="normal" text-decoration="none" x="200" y="450"></text><text fill="#eeeeee" stroke="none" font-family="Arial" font-size="24px" font-style="normal" font-weight="normal" text-decoration="none" x="200" y="480"></text><text fill="#eeeeee" stroke="none" font-family="Arial" font-size="24px" font-style="normal" font-weight="normal" text-decoration="none" x="200" y="510"></text><text fill="#eeeeee" stroke="none" font-family="Arial" font-size="24px" font-style="normal" font-weight="normal" text-decoration="none" x="200" y="540"></text><text fill="#eeeeee" stroke="none" font-family="Arial" font-size="24px" font-style="normal" font-weight="normal" text-decoration="none" x="200" y="570"></text><text fill="#eeeeee" stroke="none" font-family="Arial" font-size="24px" font-style="normal" font-weight="normal" text-decoration="none" x="200" y="600"></text><text fill="#eeeeee" stroke="none" font-family="Arial" font-size="24px" font-style="normal" font-weight="normal" text-decoration="none" x="200" y="630"></text><text fill="#eeeeee" stroke="none" font-family="Arial" font-size="24px" font-style="normal" font-weight="normal" text-decoration="none" x="200" y="660"></text><text fill="#eeeeee" stroke="none" font-family="Arial" font-size="24px" font-style="normal" font-weight="normal" text-decoration="none" x="200" y="690"></text><text fill="#eeeeee" stroke="none" font-family="Arial" font-size="24px" font-style="normal" font-weight="normal" text-decoration="none" x="400" y="0"></text><text fill="#eeeeee" stroke="none" font-family="Arial" font-size="24px" font-style="normal" font-weight="normal" text-decoration="none" x="400" y="30"></text><text fill="#eeeeee" stroke="none" font-family="Arial" font-size="24px" font-style="normal" font-weight="normal" text-decoration="none" x="400" y="60"></text><text fill="#eeeeee" stroke="none" font-family="Arial" font-size="24px" font-style="normal" font-weight="normal" text-decoration="none" x="400" y="90"></text><text fill="#eeeeee" stroke="none" font-family="Arial" font-size="24px" font-style="normal" font-weight="normal" text-decoration="none" x="400" y="120"></text><text fill="#eeeeee" stroke="none" font-family="Arial" font-size="24px" font-style="normal" font-weight="normal" text-decoration="none" x="400" y="150"></text><text fill="#eeeeee" stroke="none" font-family="Arial" font-size="24px" font-style="normal" font-weight="normal" text-decoration="none" x="400" y="180"></text><text fill="#eeeeee" stroke="none" font-family="Arial" font-size="24px" font-style="normal" font-weight="normal" text-decoration="none" x="400" y="210"></text><text fill="#eeeeee" stroke="none" font-family="Arial" font-size="24px" font-style="normal" font-weight="normal" text-decoration="none" x="400" y="240"></text><text fill="#eeeeee" stroke="none" font-family="Arial" font-size="24px" font-style="normal" font-weight="normal" text-decoration="none" x="400" y="270"></text><text fill="#eeeeee" stroke="none" font-family="Arial" font-size="24px" font-style="normal" font-weight="normal" text-decoration="none" x="400" y="300"></text><text fill="#eeeeee" stroke="none" font-family="Arial" font-size="24px" font-style="normal" font-weight="normal" text-decoration="none" x="400" y="330"></text><text fill="#eeeeee" stroke="none" font-family="Arial" font-size="24px" font-style="normal" font-weight="normal" text-decoration="none" x="400" y="360"></text><text fill="#eeeeee" stroke="none" font-family="Arial" font-size="24px" font-style="normal" font-weight="normal" text-decoration="none" x="400" y="390"></text><text fill="#eeeeee" stroke="none" font-family="Arial" font-size="24px" font-style="normal" font-weight="normal" text-decoration="none" x="400" y="420"></text><text fill="#eeeeee" stroke="none" font-family="Arial" font-size="24px" font-style="normal" font-weight="normal" text-decoration="none" x="400" y="450"></text><text fill="#eeeeee" stroke="none" font-family="Arial" font-size="24px" font-style="normal" font-weight="normal" text-decoration="none" x="400" y="480"></text><text fill="#eeeeee" stroke="none" font-family="Arial" font-size="24px" font-style="normal" font-weight="normal" text-decoration="none" x="400" y="510"></text><text fill="#eeeeee" stroke="none" font-family="Arial" font-size="24px" font-style="normal" font-weight="normal" text-decoration="none" x="400" y="540"></text><text fill="#eeeeee" stroke="none" font-family="Arial" font-size="24px" font-style="normal" font-weight="normal" text-decoration="none" x="400" y="570"></text><text fill="#eeeeee" stroke="none" font-family="Arial" font-size="24px" font-style="normal" font-weight="normal" text-decoration="none" x="400" y="600"></text><text fill="#eeeeee" stroke="none" font-family="Arial" font-size="24px" font-style="normal" font-weight="normal" text-decoration="none" x="400" y="630"></text><text fill="#eeeeee" stroke="none" font-family="Arial" font-size="24px" font-style="normal" font-weight="normal" text-decoration="none" x="400" y="660"></text><text fill="#eeeeee" stroke="none" font-family="Arial" font-size="24px" font-style="normal" font-weight="normal" text-decoration="none" x="400" y="690"></text><text fill="#eeeeee" stroke="none" font-family="Arial" font-size="24px" font-style="normal" font-weight="normal" text-decoration="none" x="600" y="0"></text><text fill="#eeeeee" stroke="none" font-family="Arial" font-size="24px" font-style="normal" font-weight="normal" text-decoration="none" x="600" y="30"></text><text fill="#eeeeee" stroke="none" font-family="Arial" font-size="24px" font-style="normal" font-weight="normal" text-decoration="none" x="600" y="60"></text><text fill="#eeeeee" stroke="none" font-family="Arial" font-size="24px" font-style="normal" font-weight="normal" text-decoration="none" x="600" y="90"></text><text fill="#eeeeee" stroke="none" font-family="Arial" font-size="24px" font-style="normal" font-weight="normal" text-decoration="none" x="600" y="120"></text><text fill="#eeeeee" stroke="none" font-family="Arial" font-size="24px" font-style="normal" font-weight="normal" text-decoration="none" x="600" y="150"></text><text fill="#eeeeee" stroke="none" font-family="Arial" font-size="24px" font-style="normal" font-weight="normal" text-decoration="none" x="600" y="180"></text><text fill="#eeeeee" stroke="none" font-family="Arial" font-size="24px" font-style="normal" font-weight="normal" text-decoration="none" x="600" y="210"></text><text fill="#eeeeee" stroke="none" font-family="Arial" font-size="24px" font-style="normal" font-weight="normal" text-decoration="none" x="600" y="240"></text><text fill="#eeeeee" stroke="none" font-family="Arial" font-size="24px" font-style="normal" font-weight="normal" text-decoration="none" x="600" y="270"></text><text fill="#eeeeee" stroke="none" font-family="Arial" font-size="24px" font-style="normal" font-weight="normal" text-decoration="none" x="600" y="300"></text><text fill="#eeeeee" stroke="none" font-family="Arial" font-size="24px" font-style="normal" font-weight="normal" text-decoration="none" x="600" y="330"></text><text fill="#eeeeee" stroke="none" font-family="Arial" font-size="24px" font-style="normal" font-weight="normal" text-decoration="none" x="600" y="360"></text><text fill="#eeeeee" stroke="none" font-family="Arial" font-size="24px" font-style="normal" font-weight="normal" text-decoration="none" x="600" y="390"></text><text fill="#eeeeee" stroke="none" font-family="Arial" font-size="24px" font-style="normal" font-weight="normal" text-decoration="none" x="600" y="420"></text><text fill="#eeeeee" stroke="none" font-family="Arial" font-size="24px" font-style="normal" font-weight="normal" text-decoration="none" x="600" y="450"></text><text fill="#eeeeee" stroke="none" font-family="Arial" font-size="24px" font-style="normal" font-weight="normal" text-decoration="none" x="600" y="480"></text><text fill="#eeeeee" stroke="none" font-family="Arial" font-size="24px" font-style="normal" font-weight="normal" text-decoration="none" x="600" y="510"></text><text fill="#eeeeee" stroke="none" font-family="Arial" font-size="24px" font-style="normal" font-weight="normal" text-decoration="none" x="600" y="540"></text><text fill="#eeeeee" stroke="none" font-family="Arial" font-size="24px" font-style="normal" font-weight="normal" text-decoration="none" x="600" y="570"></text><text fill="#eeeeee" stroke="none" font-family="Arial" font-size="24px" font-style="normal" font-weight="normal" text-decoration="none" x="600" y="600"></text><text fill="#eeeeee" stroke="none" font-family="Arial" font-size="24px" font-style="normal" font-weight="normal" text-decoration="none" x="600" y="630"></text><text fill="#eeeeee" stroke="none" font-family="Arial" font-size="24px" font-style="normal" font-weight="normal" text-decoration="none" x="600" y="660"></text><text fill="#eeeeee" stroke="none" font-family="Arial" font-size="24px" font-style="normal" font-weight="normal" text-decoration="none" x="600" y="690"></text><text fill="#eeeeee" stroke="none" font-family="Arial" font-size="24px" font-style="normal" font-weight="normal" text-decoration="none" x="800" y="0"></text><text fill="#eeeeee" stroke="none" font-family="Arial" font-size="24px" font-style="normal" font-weight="normal" text-decoration="none" x="800" y="30"></text><text fill="#eeeeee" stroke="none" font-family="Arial" font-size="24px" font-style="normal" font-weight="normal" text-decoration="none" x="800" y="60"></text><text fill="#eeeeee" stroke="none" font-family="Arial" font-size="24px" font-style="normal" font-weight="normal" text-decoration="none" x="800" y="90"></text><text fill="#eeeeee" stroke="none" font-family="Arial" font-size="24px" font-style="normal" font-weight="normal" text-decoration="none" x="800" y="120"></text><text fill="#eeeeee" stroke="none" font-family="Arial" font-size="24px" font-style="normal" font-weight="normal" text-decoration="none" x="800" y="150"></text><text fill="#eeeeee" stroke="none" font-family="Arial" font-size="24px" font-style="normal" font-weight="normal" text-decoration="none" x="800" y="180"></text><text fill="#eeeeee" stroke="none" font-family="Arial" font-size="24px" font-style="normal" font-weight="normal" text-decoration="none" x="800" y="210"></text><text fill="#eeeeee" stroke="none" font-family="Arial" font-size="24px" font-style="normal" font-weight="normal" text-decoration="none" x="800" y="240"></text><text fill="#eeeeee" stroke="none" font-family="Arial" font-size="24px" font-style="normal" font-weight="normal" text-decoration="none" x="800" y="270"></text><text fill="#eeeeee" stroke="none" font-family="Arial" font-size="24px" font-style="normal" font-weight="normal" text-decoration="none" x="800" y="300"></text><text fill="#eeeeee" stroke="none" font-family="Arial" font-size="24px" font-style="normal" font-weight="normal" text-decoration="none" x="800" y="330"></text><text fill="#eeeeee" stroke="none" font-family="Arial" font-size="24px" font-style="normal" font-weight="normal" text-decoration="none" x="800" y="360"></text><text fill="#eeeeee" stroke="none" font-family="Arial" font-size="24px" font-style="normal" font-weight="normal" text-decoration="none" x="800" y="390"></text><text fill="#eeeeee" stroke="none" font-family="Arial" font-size="24px" font-style="normal" font-weight="normal" text-decoration="none" x="800" y="420"></text><text fill="#eeeeee" stroke="none" font-family="Arial" font-size="24px" font-style="normal" font-weight="normal" text-decoration="none" x="800" y="450"></text><text fill="#eeeeee" stroke="none" font-family="Arial" font-size="24px" font-style="normal" font-weight="normal" text-decoration="none" x="800" y="480"></text><text fill="#eeeeee" stroke="none" font-family="Arial" font-size="24px" font-style="normal" font-weight="normal" text-decoration="none" x="800" y="510"></text><text fill="#eeeeee" stroke="none" font-family="Arial" font-size="24px" font-style="normal" font-weight="normal" text-decoration="none" x="800" y="540"></text><text fill="#eeeeee" stroke="none" font-family="Arial" font-size="24px" font-style="normal" font-weight="normal" text-decoration="none" x="800" y="570"></text><text fill="#eeeeee" stroke="none" font-family="Arial" font-size="24px" font-style="normal" font-weight="normal" text-decoration="none" x="800" y="600"></text><text fill="#eeeeee" stroke="none" font-family="Arial" font-size="24px" font-style="normal" font-weight="normal" text-decoration="none" x="800" y="630"></text><text fill="#eeeeee" stroke="none" font-family="Arial" font-size="24px" font-style="normal" font-weight="normal" text-decoration="none" x="800" y="660"></text><text fill="#eeeeee" stroke="none" font-family="Arial" font-size="24px" font-style="normal" font-weight="normal" text-decoration="none" x="800" y="690"></text><g transform="translate(-38,-6) scale(1,1)"><rect fill="#C0C0C0" stroke="none" x="783" y="135" width="27.5966796875" height="15" opacity="0.2"/></g><g transform="translate(-38,-6) scale(1,1)"><rect fill="#C0C0C0" stroke="none" x="783" y="149" width="68.99169921875" height="25" opacity="0.2"/></g><g transform="translate(-38,-6) scale(1,1)"><rect fill="#ffffff" stroke="none" x="776" y="143" width="68.99169921875" height="24"/></g><g transform="translate(-38,-6) scale(1,1)"><path fill="none" stroke="#000000" d="M 776 143 L 844.99169921875 143 L 844.99169921875 167 L 776 167 L 776 143 Z Z" stroke-miterlimit="10"/></g><g transform="translate(-38,-6) scale(1,1)"><rect fill="#ffffff" stroke="none" x="776" y="128" width="27.5966796875" height="15"/></g><g transform="translate(-38,-6) scale(1,1)"><path fill="none" stroke="#000000" d="M 776 128 L 803.5966796875 128 L 803.5966796875 143 L 776 143 L 776 128 Z Z" stroke-miterlimit="10"/></g><g transform="translate(-38,-6) scale(1,1)"><rect fill="#ffffff" stroke="none" x="776" y="142" width="68.99169921875" height="25"/></g><g transform="translate(-38,-6) scale(1,1)"><path fill="none" stroke="#000000" d="M 776 142 L 844.99169921875 142 L 844.99169921875 167 L 776 167 L 776 142 Z Z" stroke-miterlimit="10"/></g><g transform="translate(-38,-6) scale(1,1)"><g><path fill="none" stroke="none"/><text fill="#000000" stroke="none" font-family="Arial" font-size="13px" font-style="normal" font-weight="bold" text-decoration="none" x="797.12451171875" y="162.5">Stub</text></g></g><g transform="translate(-38,-6) scale(1,1)"><rect fill="#C0C0C0" stroke="none" x="415" y="111" width="65.44648437500001" height="15" opacity="0.2"/></g><g transform="translate(-38,-6) scale(1,1)"><rect fill="#C0C0C0" stroke="none" x="415" y="125" width="163.6162109375" height="25" opacity="0.2"/></g><g transform="translate(-38,-6) scale(1,1)"><rect fill="#ffffff" stroke="none" x="408" y="119" width="163.6162109375" height="24"/></g><g transform="translate(-38,-6) scale(1,1)"><path fill="none" stroke="#000000" d="M 408 119 L 571.6162109375 119 L 571.6162109375 143 L 408 143 L 408 119 Z Z" stroke-miterlimit="10"/></g><g transform="translate(-38,-6) scale(1,1)"><rect fill="#ffffff" stroke="none" x="408" y="104" width="65.44648437500001" height="15"/></g><g transform="translate(-38,-6) scale(1,1)"><path fill="none" stroke="#000000" d="M 408 104 L 473.446484375 104 L 473.446484375 119 L 408 119 L 408 104 Z Z" stroke-miterlimit="10"/></g><g transform="translate(-38,-6) scale(1,1)"><rect fill="#ffffff" stroke="none" x="408" y="118" width="163.6162109375" height="25"/></g><g transform="translate(-38,-6) scale(1,1)"><path fill="none" stroke="#000000" d="M 408 118 L 571.6162109375 118 L 571.6162109375 143 L 408 143 L 408 118 Z Z" stroke-miterlimit="10"/></g><g transform="translate(-38,-6) scale(1,1)"><g><path fill="none" stroke="none"/><text fill="#000000" stroke="none" font-family="Arial" font-size="13px" font-style="normal" font-weight="bold" text-decoration="none" x="417.552734375" y="138.5">DataContractPersistance</text></g></g><g transform="translate(-38,-6) scale(1,1)"><rect fill="#C0C0C0" stroke="none" x="559" y="263" width="45.99472656249998" height="15" opacity="0.2"/></g><g transform="translate(-38,-6) scale(1,1)"><rect fill="#C0C0C0" stroke="none" x="559" y="277" width="114.98681640625" height="25" opacity="0.2"/></g><g transform="translate(-38,-6) scale(1,1)"><rect fill="#ffffff" stroke="none" x="552" y="271" width="114.98681640625" height="24"/></g><g transform="translate(-38,-6) scale(1,1)"><path fill="none" stroke="#000000" d="M 552 271 L 666.98681640625 271 L 666.98681640625 295 L 552 295 L 552 271 Z Z" stroke-miterlimit="10"/></g><g transform="translate(-38,-6) scale(1,1)"><rect fill="#ffffff" stroke="none" x="552" y="256" width="45.99472656249998" height="15"/></g><g transform="translate(-38,-6) scale(1,1)"><path fill="none" stroke="#000000" d="M 552 256 L 597.9947265625 256 L 597.9947265625 271 L 552 271 L 552 256 Z Z" stroke-miterlimit="10"/></g><g transform="translate(-38,-6) scale(1,1)"><rect fill="#ffffff" stroke="none" x="552" y="270" width="114.98681640625" height="25"/></g><g transform="translate(-38,-6) scale(1,1)"><path fill="none" stroke="#000000" d="M 552 270 L 666.98681640625 270 L 666.98681640625 295 L 552 295 L 552 270 Z Z" stroke-miterlimit="10"/></g><g transform="translate(-38,-6) scale(1,1)"><g><path fill="none" stroke="none"/><text fill="#000000" stroke="none" font-family="Arial" font-size="13px" font-style="normal" font-weight="bold" text-decoration="none" x="559.99755859375" y="290.5">Test_Persistance</text></g></g><g transform="translate(-38,-6) scale(1,1)"><rect fill="#C0C0C0" stroke="none" x="343" y="311" width="46.95703125" height="15" opacity="0.2"/></g><g transform="translate(-38,-6) scale(1,1)"><rect fill="#C0C0C0" stroke="none" x="343" y="325" width="117.392578125" height="25" opacity="0.2"/></g><g transform="translate(-38,-6) scale(1,1)"><rect fill="#ffffff" stroke="none" x="336" y="319" width="117.392578125" height="24"/></g><g transform="translate(-38,-6) scale(1,1)"><path fill="none" stroke="#000000" d="M 336 319 L 453.392578125 319 L 453.392578125 343 L 336 343 L 336 319 Z Z" stroke-miterlimit="10"/></g><g transform="translate(-38,-6) scale(1,1)"><rect fill="#ffffff" stroke="none" x="336" y="304" width="46.95703125" height="15"/></g><g transform="translate(-38,-6) scale(1,1)"><path fill="none" stroke="#000000" d="M 336 304 L 382.95703125 304 L 382.95703125 319 L 336 319 L 336 304 Z Z" stroke-miterlimit="10"/></g><g transform="translate(-38,-6) scale(1,1)"><rect fill="#ffffff" stroke="none" x="336" y="318" width="117.392578125" height="25"/></g><g transform="translate(-38,-6) scale(1,1)"><path fill="none" stroke="#000000" d="M 336 318 L 453.392578125 318 L 453.392578125 343 L 336 343 L 336 318 Z Z" stroke-miterlimit="10"/></g><g transform="translate(-38,-6) scale(1,1)"><g><path fill="none" stroke="none"/><text fill="#000000" stroke="none" font-family="Arial" font-size="13px" font-style="normal" font-weight="bold" text-decoration="none" x="343.40087890625" y="338.5">JSONPersistance</text></g></g><g transform="translate(-38,-6) scale(1,1)"><rect fill="#C0C0C0" stroke="none" x="615" y="431" width="27.5966796875" height="15" opacity="0.2"/></g><g transform="translate(-38,-6) scale(1,1)"><rect fill="#C0C0C0" stroke="none" x="615" y="445" width="68.99169921875" height="25" opacity="0.2"/></g><g transform="translate(-38,-6) scale(1,1)"><rect fill="#ffffff" stroke="none" x="608" y="439" width="68.99169921875" height="24"/></g><g transform="translate(-38,-6) scale(1,1)"><path fill="none" stroke="#000000" d="M 608 439 L 676.99169921875 439 L 676.99169921875 463 L 608 463 L 608 439 Z Z" stroke-miterlimit="10"/></g><g transform="translate(-38,-6) scale(1,1)"><rect fill="#ffffff" stroke="none" x="608" y="424" width="27.5966796875" height="15"/></g><g transform="translate(-38,-6) scale(1,1)"><path fill="none" stroke="#000000" d="M 608 424 L 635.5966796875 424 L 635.5966796875 439 L 608 439 L 608 424 Z Z" stroke-miterlimit="10"/></g><g transform="translate(-38,-6) scale(1,1)"><rect fill="#ffffff" stroke="none" x="608" y="438" width="68.99169921875" height="25"/></g><g transform="translate(-38,-6) scale(1,1)"><path fill="none" stroke="#000000" d="M 608 438 L 676.99169921875 438 L 676.99169921875 463 L 608 463 L 608 438 Z Z" stroke-miterlimit="10"/></g><g transform="translate(-38,-6) scale(1,1)"><g><path fill="none" stroke="none"/><text fill="#000000" stroke="none" font-family="Arial" font-size="13px" font-style="normal" font-weight="bold" text-decoration="none" x="620.456787109375" y="458.5">Audium</text></g></g><g transform="translate(-38,-6) scale(1,1)"><rect fill="#C0C0C0" stroke="none" x="271" y="431" width="32.484375" height="15" opacity="0.2"/></g><g transform="translate(-38,-6) scale(1,1)"><rect fill="#C0C0C0" stroke="none" x="271" y="445" width="81.2109375" height="25" opacity="0.2"/></g><g transform="translate(-38,-6) scale(1,1)"><rect fill="#ffffff" stroke="none" x="264" y="439" width="81.2109375" height="24"/></g><g transform="translate(-38,-6) scale(1,1)"><path fill="none" stroke="#000000" d="M 264 439 L 345.2109375 439 L 345.2109375 463 L 264 463 L 264 439 Z Z" stroke-miterlimit="10"/></g><g transform="translate(-38,-6) scale(1,1)"><rect fill="#ffffff" stroke="none" x="264" y="424" width="32.484375" height="15"/></g><g transform="translate(-38,-6) scale(1,1)"><path fill="none" stroke="#000000" d="M 264 424 L 296.484375 424 L 296.484375 439 L 264 439 L 264 424 Z Z" stroke-miterlimit="10"/></g><g transform="translate(-38,-6) scale(1,1)"><rect fill="#ffffff" stroke="none" x="264" y="438" width="81.2109375" height="25"/></g><g transform="translate(-38,-6) scale(1,1)"><path fill="none" stroke="#000000" d="M 264 438 L 345.2109375 438 L 345.2109375 463 L 264 463 L 264 438 Z Z" stroke-miterlimit="10"/></g><g transform="translate(-38,-6) scale(1,1)"><g><path fill="none" stroke="none"/><text fill="#000000" stroke="none" font-family="Arial" font-size="13px" font-style="normal" font-weight="bold" text-decoration="none" x="271.004150390625" y="458.5">NewtonSoft</text></g></g><g transform="translate(-38,-6) scale(1,1)"><path fill="none" stroke="#000000" d="M 378 344 L 319 423" stroke-miterlimit="10" stroke-dasharray="3"/></g><g transform="translate(-38,-6) scale(1,1)"><path fill="none" stroke="#000000" d="M 321.70837083681386 412.33863388630255 L 319 423 L 328.45383166038687 417.376383108971" stroke-miterlimit="10"/></g><g transform="translate(-38,-6) scale(1,1)"><path fill="none" stroke="#000000" d="M 551 288 L 454 310" stroke-miterlimit="10" stroke-dasharray="3"/></g><g transform="translate(-38,-6) scale(1,1)"><path fill="none" stroke="#000000" d="M 462.979872227363 303.6468988060763 L 454 310 L 464.8420494819449 311.8574076103693" stroke-miterlimit="10"/></g><g transform="translate(-38,-6) scale(1,1)"><path fill="none" stroke="#000000" d="M 640 255 L 777 168" stroke-miterlimit="10" stroke-dasharray="3"/></g><g transform="translate(-38,-6) scale(1,1)"><path fill="none" stroke="#000000" d="M 770.6776186472974 177.0015273165724 L 777 168 L 766.1643602656724 169.89444227884093" stroke-miterlimit="10"/></g><g transform="translate(-38,-6) scale(1,1)"><path fill="none" stroke="#000000" d="M 593 255 L 506 144" stroke-miterlimit="10" stroke-dasharray="3"/></g><g transform="translate(-38,-6) scale(1,1)"><path fill="none" stroke="#000000" d="M 515.5822936188102 149.40181904573907 L 506 144 L 508.95604191919654 154.59536767516602" stroke-miterlimit="10"/></g><g transform="translate(-38,-6) scale(1,1)"><path fill="none" stroke="#000000" d="M 607 426 L 437 344" stroke-miterlimit="10" stroke-dasharray="3"/></g><g transform="translate(-38,-6) scale(1,1)"><path fill="none" stroke="#000000" d="M 447.9823032152422 344.6237115426867 L 437 344 L 444.3246304152065 352.2066917378827" stroke-miterlimit="10"/></g><g transform="translate(-38,-6) scale(1,1)"><path fill="#ffffff" stroke="none" d="M 400 512 L 557 512 L 567 522 L 567 704 L 400 704 L 400 512"/></g><g transform="translate(-38,-6) scale(1,1)"><path fill="none" stroke="#000000" d="M 400 512 L 557 512 L 567 522 L 567 704 L 400 704 L 400 512 L 400 512" stroke-miterlimit="10"/></g><g transform="translate(-38,-6) scale(1,1)"><path fill="none" stroke="#000000" d="M 557 512 L 557 522 L 567 522 L 557 512" stroke-miterlimit="10"/></g><g transform="translate(-38,-6) scale(1,1)"><g><path fill="none" stroke="none"/><text fill="#000000" stroke="none" font-family="Arial" font-size="13px" font-style="normal" font-weight="normal" text-decoration="none" x="405" y="530">Ressource nécessaire au</text><text fill="#000000" stroke="none" font-family="Arial" font-size="13px" font-style="normal" font-weight="normal" text-decoration="none" x="405" y="543">fonctionnement de notre</text><text fill="#000000" stroke="none" font-family="Arial" font-size="13px" font-style="normal" font-weight="normal" text-decoration="none" x="405" y="556">JSON, notamment pour</text><text fill="#000000" stroke="none" font-family="Arial" font-size="13px" font-style="normal" font-weight="normal" text-decoration="none" x="405" y="569">toute la partie de</text><text fill="#000000" stroke="none" font-family="Arial" font-size="13px" font-style="normal" font-weight="normal" text-decoration="none" x="405" y="582">conservation des</text><text fill="#000000" stroke="none" font-family="Arial" font-size="13px" font-style="normal" font-weight="normal" text-decoration="none" x="405" y="595">références.</text></g></g><g transform="translate(-38,-6) scale(1,1)"><path fill="none" stroke="#000000" d="M 399 530 L 327 464" stroke-miterlimit="10" stroke-dasharray="3"/></g><g transform="translate(-38,-6) scale(1,1)"><path fill="#ffffff" stroke="none" d="M 704 504 L 821 504 L 831 514 L 831 583 L 704 583 L 704 504"/></g><g transform="translate(-38,-6) scale(1,1)"><path fill="none" stroke="#000000" d="M 704 504 L 821 504 L 831 514 L 831 583 L 704 583 L 704 504 L 704 504" stroke-miterlimit="10"/></g><g transform="translate(-38,-6) scale(1,1)"><path fill="none" stroke="#000000" d="M 821 504 L 821 514 L 831 514 L 821 504" stroke-miterlimit="10"/></g><g transform="translate(-38,-6) scale(1,1)"><g><path fill="none" stroke="none"/><text fill="#000000" stroke="none" font-family="Arial" font-size="13px" font-style="normal" font-weight="normal" text-decoration="none" x="709" y="522">Notre projet utilise</text><text fill="#000000" stroke="none" font-family="Arial" font-size="13px" font-style="normal" font-weight="normal" text-decoration="none" x="709" y="535">dans sa version</text><text fill="#000000" stroke="none" font-family="Arial" font-size="13px" font-style="normal" font-weight="normal" text-decoration="none" x="709" y="548">finale une</text><text fill="#000000" stroke="none" font-family="Arial" font-size="13px" font-style="normal" font-weight="normal" text-decoration="none" x="709" y="561">persistance en</text><text fill="#000000" stroke="none" font-family="Arial" font-size="13px" font-style="normal" font-weight="normal" text-decoration="none" x="709" y="574">JSON.</text></g></g><g transform="translate(-38,-6) scale(1,1)"><path fill="none" stroke="#000000" d="M 668 464 L 717 503" stroke-miterlimit="10" stroke-dasharray="3"/></g><g transform="translate(-38,-6) scale(1,1)"><path fill="none" stroke="#000000" d="M 404 303 L 479 144" stroke-miterlimit="10" stroke-dasharray="3"/></g><g transform="translate(-38,-6) scale(1,1)"><path fill="none" stroke="#000000" d="M 478.47163395831785 154.9873030961195 L 479 144 L 470.8571922627598 151.3955853151959" stroke-miterlimit="10"/></g><g transform="translate(-38,-6) scale(1,1)"><path fill="#ffffff" stroke="none" d="M 48 224 L 261 224 L 271 234 L 271 295 L 48 295 L 48 224"/></g><g transform="translate(-38,-6) scale(1,1)"><path fill="none" stroke="#000000" d="M 48 224 L 261 224 L 271 234 L 271 295 L 48 295 L 48 224 L 48 224" stroke-miterlimit="10"/></g><g transform="translate(-38,-6) scale(1,1)"><path fill="none" stroke="#000000" d="M 261 224 L 261 234 L 271 234 L 261 224" stroke-miterlimit="10"/></g><g transform="translate(-38,-6) scale(1,1)"><g><path fill="none" stroke="none"/><text fill="#000000" stroke="none" font-family="Arial" font-size="13px" font-style="normal" font-weight="normal" text-decoration="none" x="53" y="242">JSONPersistance utilise le</text><text fill="#000000" stroke="none" font-family="Arial" font-size="13px" font-style="normal" font-weight="normal" text-decoration="none" x="53" y="255">DataToPersist de</text><text fill="#000000" stroke="none" font-family="Arial" font-size="13px" font-style="normal" font-weight="normal" text-decoration="none" x="53" y="268">DataContractPersistance</text></g></g><g transform="translate(-38,-6) scale(1,1)"><path fill="none" stroke="#000000" d="M 273 290 L 335 307" stroke-miterlimit="10" stroke-dasharray="3"/></g><g transform="translate(-38,-6) scale(1,1)"><path fill="#ffffff" stroke="none" d="M 872 216 L 947.919921875 216 L 957.919921875 226 L 957.919921875 304 L 872 304 L 872 216"/></g><g transform="translate(-38,-6) scale(1,1)"><path fill="none" stroke="#000000" d="M 872 216 L 947.919921875 216 L 957.919921875 226 L 957.919921875 304 L 872 304 L 872 216 L 872 216" stroke-miterlimit="10"/></g><g transform="translate(-38,-6) scale(1,1)"><path fill="none" stroke="#000000" d="M 947.919921875 216 L 947.919921875 226 L 957.919921875 226 L 947.919921875 216" stroke-miterlimit="10"/></g><g transform="translate(-38,-6) scale(1,1)"><g><path fill="none" stroke="none"/><text fill="#000000" stroke="none" font-family="Arial" font-size="13px" font-style="normal" font-weight="normal" text-decoration="none" x="877" y="234">Persistance</text><text fill="#000000" stroke="none" font-family="Arial" font-size="13px" font-style="normal" font-weight="normal" text-decoration="none" x="877" y="247">fictive,</text><text fill="#000000" stroke="none" font-family="Arial" font-size="13px" font-style="normal" font-weight="normal" text-decoration="none" x="877" y="260">surtout</text><text fill="#000000" stroke="none" font-family="Arial" font-size="13px" font-style="normal" font-weight="normal" text-decoration="none" x="877" y="273">utilisée pour</text><text fill="#000000" stroke="none" font-family="Arial" font-size="13px" font-style="normal" font-weight="normal" text-decoration="none" x="877" y="286">les tests</text></g></g><g transform="translate(-38,-6) scale(1,1)"><path fill="none" stroke="#000000" d="M 830 168 L 873 215" stroke-miterlimit="10" stroke-dasharray="3"/></g><g transform="translate(-38,-6) scale(1,1)"><path fill="#ffffff" stroke="none" d="M 552 16 L 765 16 L 775 26 L 775 65 L 552 65 L 552 16"/></g><g transform="translate(-38,-6) scale(1,1)"><path fill="none" stroke="#000000" d="M 552 16 L 765 16 L 775 26 L 775 65 L 552 65 L 552 16 L 552 16" stroke-miterlimit="10"/></g><g transform="translate(-38,-6) scale(1,1)"><path fill="none" stroke="#000000" d="M 765 16 L 765 26 L 775 26 L 765 16" stroke-miterlimit="10"/></g><g transform="translate(-38,-6) scale(1,1)"><g><path fill="none" stroke="none"/><text fill="#000000" stroke="none" font-family="Arial" font-size="13px" font-style="normal" font-weight="normal" text-decoration="none" x="557" y="34">En plus d'inclure le DataToPersist, il</text><text fill="#000000" stroke="none" font-family="Arial" font-size="13px" font-style="normal" font-weight="normal" text-decoration="none" x="557" y="47">y a également la persistance XML</text><text fill="#000000" stroke="none" font-family="Arial" font-size="13px" font-style="normal" font-weight="normal" text-decoration="none" x="557" y="60">dans ce projet</text></g></g><g transform="translate(-38,-6) scale(1,1)"><path fill="none" stroke="#000000" d="M 609 67 L 532 103" stroke-miterlimit="10" stroke-dasharray="3"/></g></g></svg>